<svg width="23" height="23" viewBox="0 0 23 23" fill="none" xmlns="http://www.w3.org/2000/svg">
<path d="M11.5096 0C5.15291 0 0 5.14433 0 11.4904C0 16.3607 3.03146 20.5217 7.31275 22.196C7.20812 21.2884 7.12365 19.8883 7.35019 18.8955C7.5585 17.9965 8.69506 13.1828 8.69506 13.1828C8.69506 13.1828 8.35428 12.4928 8.35428 11.4808C8.35428 9.88233 9.28253 8.69112 10.4383 8.69112C11.4232 8.69112 11.8974 9.42904 11.8974 10.3088C11.8974 11.292 11.2725 12.7679 10.9403 14.1392C10.6658 15.2835 11.5182 16.2198 12.6452 16.2198C14.6917 16.2198 16.2641 14.0635 16.2641 10.9614C16.2641 8.20908 14.2847 6.28954 11.452 6.28954C8.17477 6.28954 6.25107 8.73904 6.25107 11.2738C6.25107 12.2571 6.63024 13.317 7.10349 13.8939C7.19948 14.006 7.20908 14.1105 7.18028 14.2236C7.09485 14.583 6.89614 15.3678 6.85775 15.5288C6.81071 15.7368 6.68688 15.7837 6.46898 15.6802C5.02908 15.0085 4.12866 12.9183 4.12866 11.2259C4.12866 7.60342 6.76175 4.27513 11.7352 4.27513C15.7237 4.27513 18.83 7.11275 18.83 10.9145C18.83 14.8772 16.3294 18.0646 12.8621 18.0646C11.6968 18.0646 10.5976 17.4589 10.229 16.7402C10.229 16.7402 9.65115 18.9338 9.50908 19.4733C9.25373 20.4757 8.55202 21.7245 8.07878 22.4902C9.15966 22.8198 10.2972 23 11.4904 23C17.847 23 22.9999 17.8557 22.9999 11.5096C23.0191 5.14433 17.8662 0 11.5096 0Z" fill="black"/>
</svg>
