<svg width="21" height="23" viewBox="0 0 21 23" fill="none" xmlns="http://www.w3.org/2000/svg">
<path d="M20.529 9.45492C18.4791 9.45492 16.5787 8.79942 15.0281 7.68583V15.7215C15.0281 19.735 11.7631 22.999 7.75055 22.999C6.19996 22.999 4.7615 22.5103 3.57988 21.6804C1.70346 20.3627 0.472961 18.1834 0.472961 15.7215C0.472961 11.708 3.738 8.44292 7.7515 8.44292C8.085 8.44292 8.41084 8.47071 8.73188 8.51383V9.45013V12.5503C8.42138 12.4535 8.09363 12.397 7.7515 12.397C5.91917 12.397 4.428 13.8882 4.428 15.7215C4.428 16.998 5.1525 18.1068 6.2105 18.6635C6.67146 18.906 7.19567 19.045 7.75246 19.045C9.54263 19.045 11.0031 17.6209 11.0702 15.846L11.0731 0H15.0272C15.0272 0.343083 15.0607 0.677542 15.1201 1.00338C15.399 2.50988 16.2931 3.80267 17.5323 4.61054C18.3948 5.17308 19.424 5.50179 20.528 5.50179V9.45492H20.529Z" fill="black"/>
</svg>
